<?xml version="1.0" encoding="utf-8"?>
    <svg version="1.1" id="Layer_1" xmlns="http://www.w3.org/2000/svg" xmlns:xlink="http://www.w3.org/1999/xlink" x="0px" y="0px" width="32px" height="32px" viewBox="0 0 32 32" enable-background="new 0 0 32 32" xml:space="preserve">
        <defs>
            <radialGradient id="grad1" cx="0.7" cy="0.4" r="0.4" fx="0.8" fy="0.3">
                <stop offset="0%" style="stop-color:rgb(255,255,255);stop-opacity:0" />
                <stop offset="100%" style="stop-color:rgb(61,1,88);stop-opacity:1" />
            </radialGradient>
        </defs>
        <switch>
            <g>
                <path fill="url(#grad1)" stroke="black" stroke-width="1" d="M30.342,8.245c-0.998-1.053-2.22-1.796-3.595-2.251c-0.279-0.559-0.621-1.087-1.055-1.551
                C21.511,0.02,13.362-0.165,6.538,5.129C0.446,9.856-1.246,17.059,0.81,21.362c1.133-3.829,3.992-8.143,8.126-11.413
                c6.149-4.864,12.698-6.295,17.141-4.143c-4.312-1.09-9.98,0.528-15.339,4.77C3.314,16.453,0.007,25.601,3.464,29.514
                c3.458,3.903,13.224,3.324,20.638-2.542C31.524,21.105,33.923,12.051,30.342,8.245z" />
                <path d="M28.662,5.132c0.675,0.135,0.933-0.518,1.3-0.931c0.225-0.263,0.54-1.375,0.911-1.375
                c0.382-0.629-0.437-1.554-0.841-2.04c-0.267-0.329-0.494-0.536-0.911-0.7c-0.317-0.12-0.595-0.138-0.811,0.104
                c-0.405,0.445-0.001,1.147,0.003,1.656c0.01,0.505-0.027,1.104-0.15,1.573C27.99,4.124,27.537,4.936,28.662,5.132z" />
            </g>
        </switch>
    </svg>