<?xml version="1.0" encoding="iso-8859-1"?>
<!-- Generator: Adobe Illustrator 18.0.0, SVG Export Plug-In . SVG Version: 6.00 Build 0)  -->
<!DOCTYPE svg PUBLIC "-//W3C//DTD SVG 1.1//EN" "http://www.w3.org/Graphics/SVG/1.1/DTD/svg11.dtd">
<svg version="1.1" id="Capa_1" xmlns="http://www.w3.org/2000/svg" xmlns:xlink="http://www.w3.org/1999/xlink" x="0px" y="0px"
	 viewBox="0 0 442.931 442.931" style="enable-background:new 0 0 442.931 442.931;" xml:space="preserve">
<g>
	<path style="fill:none;" d="M137.033,204.274c27.001,0,49.03-26.718,49.556-60.014c0.006-0.405,20.667-38.385,20.667-38.385
		c-0.948-5.291-3.618-16.297-10.565-26.993c-12.314-18.959-32.355-28.53-59.609-28.407c-0.016,0-0.033,0-0.049,0
		c-0.008,0-0.016-0.001-0.023-0.001c-0.008,0-0.016,0.001-0.024,0.001c-0.153,0-0.308-0.001-0.46-0.001
		c-27.007,0-46.905,9.556-59.149,28.408c-6.939,10.685-9.612,21.679-10.564,26.996c0,0,20.66,37.921,20.668,38.382
		C88.077,177.479,110.077,204.274,137.033,204.274z"/>
	<path style="fill:none;" d="M232.331,242.896c0-6.628,5.373-12,12-12c6.628,0,12,5.372,12,12c0,16.634,5.375,31.733,14.076,42.802
		c0.259,0.293,0.501,0.598,0.728,0.914c8.953,10.926,21.23,17.685,34.763,17.685c13.529,0,25.806-6.757,34.759-17.683
		c0.229-0.319,0.476-0.629,0.737-0.926c8.696-11.067,14.068-26.164,14.068-42.792c0-6.628,5.373-12,12-12c6.627,0,12,5.372,12,12
		c0,8.854-1.168,17.396-3.332,25.433l27.052-12.663c-7.645-26.292-34.734-100.691-97.285-105.133
		c-62.74,4.453-89.705,78.833-97.301,105.126l27.066,12.67C233.499,260.292,232.331,251.75,232.331,242.896z"/>
	<path style="fill:#73D0F4;" d="M387.395,351.926c-21.61-15.237-50.553-23.629-81.496-23.629c-30.944,0-59.888,8.392-81.497,23.629
		c-16.123,11.368-26.504,25.448-30.113,40.53h223.218C413.897,377.374,403.518,363.294,387.395,351.926z"/>
	<path style="fill:#73D0F4;" d="M230.548,292.434l-41.158-19.267c-5.045-2.361-7.802-7.887-6.655-13.338
		c0.145-0.687,2.086-9.734,6.573-22.822c-16.086-5.731-33.939-8.732-52.273-8.732c-30.944,0-59.887,8.392-81.498,23.629
		c-16.122,11.367-26.502,25.449-30.111,40.53H230.548z"/>
	<path style="fill:#3D6889;" d="M401.225,332.312c-14.373-10.135-31.338-17.714-49.791-22.416c2.196-2.016,4.301-4.16,6.285-6.448
		l64.686-30.28c5.047-2.361,7.803-7.887,6.656-13.338c-0.27-1.283-6.813-31.782-24.556-63.311
		c-24.392-43.342-58.233-67.547-97.866-69.998c-0.04-0.003-0.079,0-0.119-0.002c-0.198-0.01-0.399-0.007-0.601-0.007
		c-0.219-0.001-0.439-0.004-0.655,0.007c-0.035,0.002-0.07,0-0.107,0.002c-39.633,2.451-73.475,26.656-97.867,69.998
		c-3.47,6.166-6.506,12.289-9.156,18.166c-5.064-1.832-10.271-3.428-15.594-4.785c15.588-14.293,26.084-35.732,27.791-60.027
		c0.277-0.387,0.546-0.785,0.781-1.214l19.096-34.71c1.128-2.051,1.632-4.389,1.449-6.723c-0.066-0.835-1.748-20.684-14.206-40.426
		c-11.624-18.42-34.914-40.325-79.909-40.325c-0.169,0-0.34,0.001-0.509,0.001c-0.171,0-0.337-0.001-0.509-0.001
		c-44.99,0-68.286,21.906-79.91,40.325c-12.458,19.742-14.14,39.591-14.205,40.426c-0.184,2.334,0.32,4.672,1.449,6.723
		l19.096,34.71c0.235,0.428,0.503,0.825,0.78,1.212c1.706,24.281,12.19,45.709,27.763,60.004
		c-18.453,4.701-35.418,12.28-49.791,22.414C14.811,251.251,0,276.873,0,304.434c0,6.628,5.372,12,12,12h228.169
		c-10.693,4.251-20.648,9.567-29.598,15.878c-26.895,18.963-41.707,44.584-41.707,72.145c0,6.627,5.373,12,12,12h250.066
		c6.628,0,12-5.373,12-12C442.931,376.895,428.119,351.274,401.225,332.312z M194.288,392.456
		c3.609-15.082,13.99-29.162,30.113-40.53c21.609-15.237,50.553-23.629,81.497-23.629c30.943,0,59.886,8.392,81.496,23.629
		c16.123,11.368,26.502,25.448,30.111,40.53H194.288z M55.536,251.903c21.611-15.237,50.554-23.629,81.498-23.629
		c18.335,0,36.188,3.002,52.273,8.732c-4.487,13.088-6.429,22.136-6.573,22.822c-1.146,5.451,1.61,10.977,6.655,13.338
		l41.158,19.267H25.425C29.034,277.353,39.414,263.27,55.536,251.903z M305.897,150.533c62.551,4.442,89.641,78.841,97.285,105.133
		l-27.052,12.663c2.164-8.037,3.332-16.579,3.332-25.433c0-6.628-5.373-12-12-12c-6.627,0-12,5.372-12,12
		c0,16.628-5.372,31.725-14.068,42.792c-0.262,0.297-0.508,0.607-0.737,0.926c-8.953,10.926-21.23,17.683-34.759,17.683
		c-13.532,0-25.81-6.759-34.763-17.685c-0.227-0.316-0.47-0.621-0.728-0.914c-8.701-11.068-14.076-26.168-14.076-42.802
		c0-6.628-5.372-12-12-12c-6.627,0-12,5.372-12,12c0,8.854,1.168,17.396,3.332,25.433l-27.066-12.67
		C216.192,229.366,243.157,154.986,305.897,150.533z M87.479,144.261c-0.008-0.461-20.668-38.382-20.668-38.382
		c0.952-5.317,3.625-16.312,10.564-26.996c12.244-18.853,32.142-28.408,59.149-28.408c0.152,0,0.307,0.001,0.46,0.001
		c0.008,0,0.016-0.001,0.024-0.001c0.008,0,0.016,0.001,0.023,0.001c0.016,0,0.033,0,0.049,0
		c27.254-0.123,47.296,9.448,59.609,28.407c6.947,10.696,9.617,21.702,10.565,26.993c0,0-20.661,37.979-20.667,38.385
		c-0.525,33.296-22.555,60.014-49.556,60.014C110.077,204.274,88.077,177.479,87.479,144.261z"/>
</g>
<g>
</g>
<g>
</g>
<g>
</g>
<g>
</g>
<g>
</g>
<g>
</g>
<g>
</g>
<g>
</g>
<g>
</g>
<g>
</g>
<g>
</g>
<g>
</g>
<g>
</g>
<g>
</g>
<g>
</g>
</svg>
