<?xml version="1.0" encoding="iso-8859-1"?>
<!-- Generator: Adobe Illustrator 19.0.0, SVG Export Plug-In . SVG Version: 6.00 Build 0)  -->
<svg version="1.1" id="Layer_1" xmlns="http://www.w3.org/2000/svg" xmlns:xlink="http://www.w3.org/1999/xlink" x="0px" y="0px"
	 viewBox="0 0 512 512" style="enable-background:new 0 0 512 512;" xml:space="preserve">
<path style="fill:#314E55;" d="M148.269,281.872c-1.191-1.07-2.652-1.8-4.226-2.113c-2.226-0.426-22.034-3.965-31.625,7.921
	c-9.426,11.669-4.035,26.956-3.387,28.66c0.374,0.991,0.926,1.904,1.626,2.704l9.608,10.982l-30.338-13.904L48.881,211.249
	c-0.313-0.809-0.743-1.556-1.274-2.243c-4.213-5.374-15.613-13.069-31.625-7.739c-17.53,5.843-17.312,24.243-14.665,33.599
	c6.817,35.251,23.617,117.37,34.351,128.918c5.196,5.591,26.473,21.147,60.902,46.094c21.721,15.739,51.285,37.164,56.037,41.955
	c2.952,5.33,18.743,32.077,41.738,38.599c3.339,0.948,6.691,1.417,10.017,1.417c6.778,0,13.447-1.956,19.673-5.809
	c9.491-5.869,15.812-16.808,18.795-32.495c6.552-34.469-4.383-85.11-10.56-93.388C226.266,352.096,161.242,293.533,148.269,281.872z
	"/>
<path style="fill:#E9E7D1;" d="M214.666,470.892c-5.135,3.174-10.039,3.948-15.465,2.4c-15.295-4.33-28.673-25.382-31.164-30.355
	c-2.074-4.148-7.948-9.017-61.015-47.477c-23.878-17.304-53.559-38.816-58.229-43.712c-5.739-7.782-19.782-67.38-30.273-121.5
	c-0.296-1.026-2.726-10.148,3.087-12.078c6.239-2.078,9.904,0.035,11.334,1.209l41.712,106.579c0.839,2.148,2.482,3.887,4.582,4.852
	l71.393,32.729c3.817,1.757,8.334,0.591,10.847-2.774c2.509-3.365,2.326-8.026-0.439-11.182l-35.734-40.842
	c-0.6-2.444-1.217-7.165,0.965-9.869c1.517-1.869,7.148-2.496,12.082-1.965c36.19,32.547,75.88,69.024,79.423,73.572
	C223.457,380.539,237.161,456.98,214.666,470.892z"/>
<path style="fill:#314E55;" d="M496.018,201.267c-16.026-5.33-27.417,2.365-31.625,7.739c-0.53,0.687-0.961,1.435-1.274,2.243
	l-41.047,104.875l-30.338,13.904l9.608-10.982c0.7-0.8,1.252-1.713,1.626-2.704c0.648-1.704,6.039-16.991-3.387-28.669
	c-9.591-11.869-29.416-8.339-31.625-7.913c-1.574,0.313-3.035,1.044-4.226,2.113c-12.973,11.661-77.997,70.224-83.997,78.284
	c-6.182,8.278-17.117,58.92-10.565,93.388c2.982,15.687,9.304,26.625,18.791,32.495c6.23,3.852,12.9,5.809,19.677,5.809
	c3.326,0,6.678-0.469,10.017-1.417c22.99-6.522,38.781-33.26,41.738-38.599c4.748-4.791,34.316-26.216,56.037-41.955
	c34.429-24.947,55.707-40.503,60.902-46.094c10.739-11.556,27.538-93.666,34.351-128.918
	C513.33,225.509,513.548,207.11,496.018,201.267z"/>
<path style="fill:#E9E7D1;" d="M493.496,230.196c-0.091,0.287-0.165,0.583-0.222,0.887
	c-10.287,53.285-24.325,112.874-30.069,120.665c-4.665,4.895-34.347,26.408-58.229,43.712
	c-53.068,38.46-58.941,43.329-61.011,47.477c-2.496,4.974-15.874,26.025-31.169,30.355c-5.413,1.556-10.334,0.783-15.469-2.4
	c-22.491-13.913-8.787-90.353-3.33-100.084c3.765-4.869,43.459-41.355,79.654-73.902c4.543-0.469,10.461-0.043,12.078,1.956
	c2.152,2.669,1.591,7.33,0.961,9.887l-35.729,40.834c-2.765,3.156-2.948,7.817-0.439,11.182c2.513,3.365,7.043,4.53,10.847,2.774
	l71.393-32.729c2.1-0.965,3.743-2.704,4.582-4.852l41.694-106.536c1.548-1.27,5.208-3.322,11.352-1.252
	C496.205,220.101,493.775,229.222,493.496,230.196z"/>
<path style="fill:#314E55;" d="M176.463,166.189c2.622,0,5.255-0.122,7.893-0.348c7.002,20.618,10.274,37.682,10.333,38.007
	c0.8,4.287,4.539,7.278,8.748,7.278c0.539,0,1.083-0.052,1.63-0.148c4.835-0.896,8.03-5.539,7.135-10.374
	c-0.272-1.463-3.99-20.939-12.158-43.998c16.428-30.107,15.036-67.148-4.276-95.779c-20.199-29.938-56.281-45.399-91.901-39.399
	c-2.535,0.426-4.756,1.93-6.104,4.122c-18.917,30.782-18.091,70.015,2.109,99.953C117.17,151.164,146.121,166.189,176.463,166.189z"
	/>
<path style="fill:#5ECB66;" d="M110.887,38.42c27.425-3.113,54.581,9.33,70.115,32.373c12.554,18.604,15.668,41.619,9.544,62.583
	c-5.772-12.291-12.778-24.308-21.261-34.071c-3.222-3.704-8.856-4.095-12.561-0.878c-3.713,3.226-4.109,8.852-0.883,12.565
	c8.92,10.265,16.129,23.74,21.833,37.231c-24.937,0.403-48.851-11.62-63.041-32.675C99.096,92.522,97.761,62.68,110.887,38.42z"/>
<path style="fill:#314E55;" d="M220.123,293.316c1.243,0.6,2.556,0.878,3.852,0.878c3.313,0,6.495-1.861,8.03-5.043
	c0.197-0.412,8.813-18.098,23.665-41.559c16.992,5.937,34.574,9.004,52.08,9.004c40.386,0,80.167-15.4,110.201-44.398
	c44.585-43.068,59.972-108.631,39.199-167.047c-0.861-2.426-2.726-4.356-5.117-5.295c-57.655-22.799-123.718-9.713-168.308,33.338
	c-43.141,41.665-58.839,104.39-40.998,161.332c-16.33,25.406-25.907,45.107-26.774,46.905
	C213.823,285.864,215.688,291.185,220.123,293.316z"/>
<path style="fill:#5ECB66;" d="M296.099,86.01c38.581-37.286,95.31-49.242,145.578-31.042c16.443,50.859,2.5,107.144-36.099,144.413
	c-37.14,35.864-91.046,48.198-139.823,32.897c19.7-28.788,46.855-61.946,78.39-82.782c4.104-2.704,5.23-8.234,2.522-12.33
	c-2.709-4.113-8.217-5.235-12.339-2.522c-31.359,20.715-58.153,51.9-78.301,80.227C246.711,168.384,261.4,119.515,296.099,86.01z"/>
<g>
</g>
<g>
</g>
<g>
</g>
<g>
</g>
<g>
</g>
<g>
</g>
<g>
</g>
<g>
</g>
<g>
</g>
<g>
</g>
<g>
</g>
<g>
</g>
<g>
</g>
<g>
</g>
<g>
</g>
</svg>
