<?xml version="1.0" encoding="iso-8859-1"?>
<!-- Generator: Adobe Illustrator 19.0.0, SVG Export Plug-In . SVG Version: 6.00 Build 0)  -->
<svg version="1.1" id="Layer_1" xmlns="http://www.w3.org/2000/svg" xmlns:xlink="http://www.w3.org/1999/xlink" x="0px" y="0px"
	 viewBox="0 0 512 512" style="enable-background:new 0 0 512 512;" xml:space="preserve">
<g>
	<path style="fill:#507C5C;" d="M380.488,211.046c-39.851,0-72.272-32.421-72.272-72.273c0-39.851,32.421-72.272,72.272-72.272
		c39.852,0,72.273,32.421,72.273,72.272c0,8.173-6.628,14.801-14.801,14.801s-14.801-6.628-14.801-14.801
		c0-23.528-19.143-42.669-42.671-42.669s-42.669,19.142-42.669,42.669c0,23.528,19.142,42.671,42.669,42.671
		c8.173,0,14.801,6.628,14.801,14.801S388.662,211.046,380.488,211.046z"/>
	<path style="fill:#507C5C;" d="M403.481,478.135h-31.109c-24.404,0-44.833-18.29-47.518-42.546l-15.583-140.654
		c-0.463-4.184,0.876-8.367,3.684-11.502c2.806-3.136,6.817-4.929,11.027-4.929h113.014c8.173,0,14.801,6.628,14.801,14.801
		s-6.628,14.801-14.801,14.801h-96.482l13.764,124.224c1.021,9.237,8.801,16.203,18.096,16.203h31.109
		c8.173,0,14.801,6.628,14.801,14.801S411.655,478.135,403.481,478.135z"/>
</g>
<path style="fill:#CFF09E;" d="M448.5,356.742H312.479V226.01c0-16.789,13.611-30.4,30.4-30.4h75.222
	c16.789,0,30.4,13.611,30.4,30.4v130.732H448.5z"/>
<g>
	<path style="fill:#507C5C;" d="M448.5,371.543H312.479c-8.173,0-14.801-6.628-14.801-14.801V226.01
		c0-24.924,20.278-45.202,45.202-45.202h75.22c24.924,0,45.202,20.278,45.202,45.202v130.732
		C463.301,364.917,456.673,371.543,448.5,371.543z M327.279,341.941h106.418V226.01c0-8.602-6.998-15.599-15.599-15.599h-75.22
		c-8.603,0-15.599,6.998-15.599,15.599L327.279,341.941L327.279,341.941z"/>
	<path style="fill:#507C5C;" d="M154.505,478.135h-31.109c-24.403,0-44.832-18.29-47.52-42.545L60.294,294.935
		c-0.463-4.184,0.878-8.367,3.684-11.504c2.808-3.135,6.817-4.927,11.027-4.927h113.014c8.173,0,14.801,6.628,14.801,14.801
		s-6.628,14.801-14.801,14.801H91.537l13.762,124.226c1.023,9.236,8.802,16.202,18.098,16.202h31.109
		c8.173,0,14.801,6.628,14.801,14.801S162.678,478.135,154.505,478.135z"/>
</g>
<path style="fill:#CFF09E;" d="M199.523,356.742H63.5V226.01c0-16.789,13.611-30.4,30.4-30.4h75.222c16.789,0,30.4,13.611,30.4,30.4
	V356.742z"/>
<g>
	<path style="fill:#507C5C;" d="M199.523,371.543H63.5c-8.173,0-14.801-6.628-14.801-14.801V226.01
		c0-24.924,20.278-45.202,45.202-45.202h75.22c24.924,0,45.202,20.278,45.202,45.202v130.732
		C214.324,364.917,207.696,371.543,199.523,371.543z M78.302,341.941H184.72V226.01c0-8.602-6.998-15.599-15.599-15.599h-75.22
		c-8.603,0-15.599,6.998-15.599,15.599V341.941z"/>
	<path style="fill:#507C5C;" d="M131.512,211.046c-39.852,0-72.273-32.421-72.273-72.273c0-39.851,32.421-72.272,72.273-72.272
		c39.851,0,72.272,32.421,72.272,72.272C203.784,178.625,171.362,211.046,131.512,211.046z M131.512,96.103
		c-23.528,0-42.671,19.142-42.671,42.669c0,23.528,19.143,42.671,42.671,42.671s42.669-19.143,42.669-42.671
		C174.181,115.244,155.039,96.103,131.512,96.103z"/>
	<path style="fill:#507C5C;" d="M286.437,512h-45.999c-27.113,0-49.809-20.321-52.795-47.269l-21.16-190.99
		c-0.463-4.184,0.876-8.367,3.684-11.502c2.806-3.136,6.817-4.929,11.027-4.929h149.608c8.173,0,14.801,6.628,14.801,14.801
		s-6.628,14.801-14.801,14.801H197.726l19.339,174.56c1.322,11.931,11.369,20.926,23.371,20.926h45.999
		c8.173,0,14.801,6.628,14.801,14.801S294.612,512,286.437,512z"/>
</g>
<path style="fill:#CFF09E;" d="M346.033,356.572H165.967V204.583c0-22.226,18.018-40.245,40.245-40.245h99.579
	c22.226,0,40.245,18.018,40.245,40.245v151.988H346.033z"/>
<g>
	<path style="fill:#507C5C;" d="M346.033,371.373H165.967c-8.173,0-14.801-6.628-14.801-14.801V204.583
		c0-30.352,24.694-55.044,55.044-55.044h99.579c30.352,0,55.044,24.694,55.044,55.044v151.99
		C360.835,364.747,354.208,371.373,346.033,371.373z M180.768,341.77h150.464V204.583c0-14.03-11.413-25.442-25.442-25.442h-99.579
		c-14.03,0-25.442,11.413-25.442,25.442V341.77H180.768z"/>
	<path style="fill:#507C5C;" d="M256,178.193c-49.127,0-89.096-39.969-89.096-89.096S206.873,0,256,0s89.096,39.968,89.096,89.095
		S305.127,178.193,256,178.193z M256,29.603c-32.806,0-59.494,26.688-59.494,59.492c0,32.806,26.688,59.494,59.494,59.494
		s59.494-26.688,59.494-59.494C315.494,56.291,288.806,29.603,256,29.603z"/>
</g>
<g>
</g>
<g>
</g>
<g>
</g>
<g>
</g>
<g>
</g>
<g>
</g>
<g>
</g>
<g>
</g>
<g>
</g>
<g>
</g>
<g>
</g>
<g>
</g>
<g>
</g>
<g>
</g>
<g>
</g>
</svg>
