<?xml version="1.0" encoding="iso-8859-1"?>
<!-- Generator: Adobe Illustrator 19.0.0, SVG Export Plug-In . SVG Version: 6.00 Build 0)  -->
<svg xmlns="http://www.w3.org/2000/svg" xmlns:xlink="http://www.w3.org/1999/xlink" version="1.1" id="Capa_1" x="0px" y="0px" viewBox="0 0 455 455" style="enable-background:new 0 0 455 455;" xml:space="preserve" width="512" height="512">
<g>
	<polygon style="fill:#FFCC75;" points="455,67.5 455,397.5 395,397.5 351,67.5  "/>
	<path style="fill:#F2EBD9;" d="M395,397.5v-286l-74-10l-10-74H0v370c0,16.5,13.5,30,30,30h395c16.5,0,30-13.5,30-30H395z"/>
	<rect x="60" y="229.5" style="fill:#FF6E1D;" width="107.5" height="90"/>
	<path style="fill:#274B6D;" d="M140.454,133.535l26.248-20c2.685-2.045,6.408-2.045,9.093,0l21.709,16.537l21.704-16.537   c2.685-2.045,6.406-2.045,9.091,0l26.248,20c3.294,2.511,3.93,7.217,1.419,10.512c-2.51,3.294-7.217,3.929-10.511,1.42   l-21.701-16.537l-21.703,16.537c-2.685,2.044-6.405,2.046-9.09,0l-21.708-16.537l-21.706,16.537   c-3.294,2.509-8.001,1.874-10.511-1.42C136.524,140.751,137.16,136.045,140.454,133.535z"/>
	<path style="fill:#185F8D;" d="M167.5,372H60c-4.142,0-7.5-3.357-7.5-7.5s3.358-7.5,7.5-7.5h107.5c4.142,0,7.5,3.357,7.5,7.5   S171.642,372,167.5,372z"/>
	<path style="fill:#185F8D;" d="M335,372H227.5c-4.142,0-7.5-3.357-7.5-7.5s3.358-7.5,7.5-7.5H335c4.143,0,7.5,3.357,7.5,7.5   S339.143,372,335,372z"/>
	<path style="fill:#185F8D;" d="M335,327H227.5c-4.142,0-7.5-3.357-7.5-7.5s3.358-7.5,7.5-7.5H335c4.143,0,7.5,3.357,7.5,7.5   S339.143,327,335,327z"/>
	<path style="fill:#185F8D;" d="M335,282H227.5c-4.142,0-7.5-3.357-7.5-7.5s3.358-7.5,7.5-7.5H335c4.143,0,7.5,3.357,7.5,7.5   S339.143,282,335,282z"/>
	<path style="fill:#185F8D;" d="M335,237H227.5c-4.142,0-7.5-3.357-7.5-7.5s3.358-7.5,7.5-7.5H335c4.143,0,7.5,3.357,7.5,7.5   S339.143,237,335,237z"/>
	<path style="fill:#185F8D;" d="M335,192H60c-4.142,0-7.5-3.357-7.5-7.5s3.358-7.5,7.5-7.5h275c4.143,0,7.5,3.357,7.5,7.5   S339.143,192,335,192z"/>
	<polygon style="fill:#F48205;" points="395,111.5 311,111.5 311,27.5 351,67.5  "/>
</g>















</svg>
