<?xml version="1.0" encoding="iso-8859-1"?>
<!-- Generator: Adobe Illustrator 19.0.0, SVG Export Plug-In . SVG Version: 6.00 Build 0)  -->
<svg version="1.1" id="Capa_1" xmlns="http://www.w3.org/2000/svg" xmlns:xlink="http://www.w3.org/1999/xlink" x="0px" y="0px"
	 viewBox="0 0 437.352 437.352" style="enable-background:new 0 0 437.352 437.352;" xml:space="preserve">
<g>
	<path style="fill:#FCDB5A;" d="M346.515,90.746c-1.5-1.5-2.872-3.094-4.112-4.768L203.124,225.257l8.879,8.88L351.282,94.857
		C349.608,93.617,348.014,92.246,346.515,90.746z"/>
	
		<rect x="368.612" y="35.363" transform="matrix(-0.7071 -0.7071 0.7071 -0.7071 645.9175 350.8315)" style="fill:#FCDB5A;" width="54.012" height="12.558"/>
	<path style="fill:#4D3D36;" d="M435.064,50.995L386.265,2.197c-2.929-2.929-7.678-2.929-10.606,0l-19.486,19.486l-9.658,9.659
		c-7.934,7.934-12.304,18.482-12.304,29.703c0,3.616,0.46,7.161,1.341,10.572L190.813,216.355c-1.884,0.073-3.677,0.844-5.015,2.182
		l-29.544,29.543l-38.935-38.935c-1.407-1.407-3.314-2.197-5.303-2.197c-2,0.002-3.909,0.796-5.314,2.208l-81.721,82.071
		C5.102,311.108-3.115,339.868,1.218,374.4c3.189,25.411,11.967,44.935,12.339,45.754c0.75,1.651,2.074,2.974,3.725,3.725
		c1.21,0.55,30.031,13.472,63.341,13.474c26.999,0,49.062-8.377,65.583-24.898l81.907-81.907c1.407-1.406,2.197-3.314,2.197-5.303
		s-0.79-3.897-2.197-5.303l-38.937-38.937l29.543-29.543c1.39-1.39,2.112-3.191,2.183-5.012l144.74-144.74
		c3.412,0.881,6.956,1.341,10.573,1.341c11.22,0,21.769-4.37,29.703-12.304l9.659-9.658l19.486-19.486
		C437.993,58.673,437.993,53.924,435.064,50.995z M410.275,65.178l-38.192-38.192l8.879-8.879l38.192,38.192L410.275,65.178z
		 M46.213,317.509c-2.929-2.929-7.678-2.929-10.606,0l-18.267,18.267c2.742-12.176,8.308-24,18.26-33.952l58.266-58.516
		c-9.188,19.763-21.569,37.512-37.046,52.988c-2.929,2.929-2.929,7.678,0,10.606c1.464,1.464,3.384,2.197,5.303,2.197
		s3.839-0.732,5.303-2.197c22.006-22.006,38.24-48.218,48.383-78.053l29.839,29.839l-15.91,15.91c-2.929,2.929-2.929,7.678,0,10.606
		c1.464,1.464,3.384,2.197,5.303,2.197s3.839-0.732,5.303-2.197l21.213-21.213l29.544-29.543l11.709,11.71L173.267,275.7
		l-21.213,21.213c-2.929,2.929-2.929,7.678,0,10.606c1.464,1.464,3.384,2.197,5.303,2.197s3.839-0.732,5.303-2.197l15.91-15.91
		l29.841,29.841c-29.835,10.143-56.047,26.377-78.053,48.383l-52.481,52.481c-23.448-0.565-44.551-8.127-51.76-10.999
		c-2.886-7.242-10.493-28.485-10.975-52.13l31.071-31.071C49.142,325.186,49.142,320.437,46.213,317.509z M101.16,420.245
		l39.805-39.805c15.526-15.526,33.338-27.938,53.178-37.135L135.6,401.847C126.334,411.114,114.797,417.261,101.16,420.245z
		 M203.124,225.257L342.403,85.978c1.24,1.674,2.611,3.268,4.112,4.768c1.5,1.5,3.094,2.872,4.768,4.111L212.003,234.136
		L203.124,225.257z M376.217,88.05c-7.213,0-13.995-2.81-19.096-7.91s-7.91-11.882-7.91-19.096c0-7.214,2.81-13.996,7.91-19.096
		l4.355-4.355l38.192,38.192l-4.355,4.355C390.212,85.24,383.43,88.05,376.217,88.05z"/>
	<path style="fill:#BCC987;" d="M140.965,380.441l-39.805,39.805c13.637-2.984,25.174-9.132,34.44-18.398l58.542-58.542
		C174.302,352.502,156.491,364.915,140.965,380.441z"/>
	<path style="fill:#BCC987;" d="M15.142,359.186c0.482,23.645,8.09,44.888,10.975,52.13c7.209,2.872,28.312,10.434,51.76,10.999
		l52.481-52.481c22.006-22.006,48.218-38.24,78.053-48.383l-29.841-29.841l-15.91,15.91c-1.464,1.464-3.384,2.197-5.303,2.197
		s-3.839-0.732-5.303-2.197c-2.929-2.929-2.929-7.678,0-10.606l21.213-21.213l29.543-29.543l-11.709-11.71l-29.544,29.543
		l-21.213,21.213c-1.464,1.464-3.384,2.197-5.303,2.197s-3.839-0.732-5.303-2.197c-2.929-2.929-2.929-7.678,0-10.606l15.91-15.91
		l-29.839-29.839c-10.143,29.835-26.377,56.047-48.383,78.053c-1.464,1.464-3.384,2.197-5.303,2.197s-3.839-0.732-5.303-2.197
		c-2.929-2.929-2.929-7.678,0-10.606c15.476-15.476,27.858-33.224,37.046-52.988l-58.266,58.516
		c-9.952,9.952-15.518,21.776-18.26,33.952l18.267-18.267c2.929-2.929,7.678-2.929,10.606,0c2.929,2.929,2.929,7.678,0,10.606
		L15.142,359.186z"/>
</g>
<g>
</g>
<g>
</g>
<g>
</g>
<g>
</g>
<g>
</g>
<g>
</g>
<g>
</g>
<g>
</g>
<g>
</g>
<g>
</g>
<g>
</g>
<g>
</g>
<g>
</g>
<g>
</g>
<g>
</g>
</svg>
