<?xml version="1.0" encoding="iso-8859-1"?>
<!-- Generator: Adobe Illustrator 19.0.0, SVG Export Plug-In . SVG Version: 6.00 Build 0)  -->
<svg version="1.1" id="Layer_1" xmlns="http://www.w3.org/2000/svg" xmlns:xlink="http://www.w3.org/1999/xlink" x="0px" y="0px"
	 viewBox="0 0 512.001 512.001" style="enable-background:new 0 0 512.001 512.001;" xml:space="preserve">
<path style="fill:#4BAA62;" d="M196.914,89.658c42.376,35.414,35.209,113.956,5.475,154.986
	c-29.729,41.933-70.04,32.778-110.534-0.915c-19.37-17.489-38.113-53.85-53.63-80.974c-15.246-27.915-27.266-46.594-26.915-46.996
	c-0.314,0.502,36.472-20.083,77.846-30.895C130.618,73.205,176.668,71.319,196.914,89.658z"/>
<path style="fill:#BFE0BF;" d="M151.701,159.422c-1.713-4.604,2.618-9.186,7.299-7.698c12.764,4.058,34.367,12.99,56.042,31.314
	c29.567,24.996,64.609,84.071,63.632,169.685c-0.141,12.401-10.24,22.357-22.608,22.357c-0.092,0-0.182-0.001-0.274-0.002
	c-12.491-0.162-22.473-10.651-22.342-23.142c0.567-54.502-15.451-107.171-47.608-134.357c-0.986-0.833-1.971-1.64-2.955-2.42
	c-9.709-7.702-17.115-17.913-21.436-29.528L151.701,159.422z"/>
<path style="fill:#4BAA62;" d="M315.086,89.658c-42.376,35.414-35.209,113.956-5.475,154.986
	c29.729,41.933,70.04,32.778,110.534-0.915c19.37-17.489,38.113-53.85,53.63-80.974c15.246-27.915,27.266-46.594,26.915-46.996
	c0.314,0.502-36.472-20.083-77.846-30.895C381.382,73.205,335.332,71.319,315.086,89.658z"/>
<path style="fill:#BFE0BF;" d="M359.361,159.991c2.04-4.67-2.386-9.563-7.232-7.986c-12.861,4.184-33.981,13.12-55.17,31.033
	c-29.567,24.996-64.609,84.071-63.632,169.685c0.141,12.401,10.24,22.357,22.608,22.357c0.092,0,0.182-0.001,0.274-0.002
	c12.491-0.162,22.473-10.651,22.342-23.142c-0.567-54.502,15.451-107.171,47.608-134.357c0.041-0.034,0.08-0.068,0.121-0.102
	c8.146-6.868,14.71-15.416,18.974-25.181L359.361,159.991z"/>
<path style="fill:#939393;" d="M24.257,348.884c38.633,0,38.633,15.831,77.265,15.831c38.631,0,38.631-15.831,77.263-15.831
	c38.633,0,38.633,15.831,77.266,15.831c38.634,0,38.634-15.831,77.269-15.831c38.637,0,38.637,15.831,77.272,15.831
	s38.637-15.831,77.272-15.831v87.068H24.257L24.257,348.884L24.257,348.884z"/>
<g>
	<path style="fill:#231F20;" d="M85.369,131.151c-3.022-5.464-9.902-7.445-15.368-4.422c-5.465,3.022-7.445,9.903-4.422,15.368
		c0.222,0.4,2.698,4.815,6.425,11.297c2.092,3.638,5.898,5.673,9.814,5.673c1.911,0,3.849-0.485,5.625-1.506
		c5.414-3.113,7.28-10.025,4.167-15.439C88.029,135.896,85.589,131.55,85.369,131.151z"/>
	<path style="fill:#231F20;" d="M120.651,189.833c-3.487-5.18-10.514-6.554-15.694-3.068c-5.181,3.486-6.555,10.513-3.068,15.694
		c6.815,10.128,10.081,13.638,11.944,15.396c2.186,2.063,4.975,3.086,7.76,3.086c3.003,0,6.001-1.19,8.224-3.545
		c4.288-4.541,4.081-11.698-0.46-15.984C128.768,200.855,126.401,198.378,120.651,189.833z"/>
	<path style="fill:#231F20;" d="M405.549,190.658c-5.023-3.711-12.102-2.648-15.814,2.376c-2.725,3.69-5.112,6.507-7.091,8.377
		c-4.541,4.287-4.748,11.443-0.461,15.984c2.225,2.356,5.222,3.546,8.225,3.546c2.785,0,5.575-1.022,7.759-3.085
		c2.994-2.827,6.186-6.55,9.757-11.383C411.635,201.449,410.571,194.369,405.549,190.658z"/>
	<path style="fill:#231F20;" d="M418.355,145.909c-3.059,5.445-1.123,12.338,4.322,15.396c1.752,0.984,3.651,1.451,5.527,1.451
		c3.954,0,7.795-2.078,9.869-5.772l0.184-0.328c2.844-5.062,7.532-13.413,8.17-14.565c3.018-5.467,1.032-12.346-4.435-15.363
		c-5.466-3.02-12.347-1.034-15.365,4.434c-0.63,1.141-5.273,9.409-8.088,14.422L418.355,145.909z"/>
	<path style="fill:#231F20;" d="M509.216,108.333c-1.221-1.402-59.449-28.109-83.41-34.382c-40.604-11.4-92.878-15.48-118.14,7.171
		C285.694,99.585,273.74,129.408,274,165.128c0.055,7.642,0.698,15.327,1.858,22.91c-7.109,8.068-13.804,17.378-19.863,27.63
		c-6.056-10.25-12.746-19.57-19.851-27.639c1.159-7.581,1.802-15.263,1.857-22.901c0.259-35.72-11.695-65.543-33.668-84.006
		c-25.262-22.651-77.537-18.573-118.14-7.171c-23.962,6.271-82.189,32.979-83.41,34.382c-2.134,2.449-2.82,4.975-2.782,7.291
		c-0.023,1.826,0.397,3.649,1.242,5.299c0.504,1.168,17.953,30.586,27.057,47.255c0.036,0.066,0.071,0.13,0.109,0.194
		c2.292,4.006,4.655,8.216,7.081,12.537c14.493,25.818,30.921,55.083,48.787,71.215c0.113,0.102,0.228,0.202,0.346,0.3
		c25.207,20.971,48.79,31.558,70.246,31.557c2.766,0,5.498-0.176,8.192-0.528c15.366-2.01,29.093-9.652,40.937-22.742
		c10.881,22.594,17.332,51.269,18.078,82.365c-0.021,1.128-0.044,2.258-0.053,3.391c-0.105-0.043-0.209-0.086-0.315-0.129
		c-10.02-4.106-21.377-8.76-42.921-8.76c-21.543,0-32.899,4.654-42.92,8.76c-9.259,3.794-17.255,7.071-34.343,7.071
		c-17.09,0-25.087-3.277-34.347-7.071c-10.02-4.106-21.377-8.76-42.92-8.76c-6.245,0-11.307,5.062-11.307,11.307v87.068
		c0,6.245,5.062,11.307,11.307,11.307h463.607c6.244,0,11.307-5.062,11.307-11.307v-87.068c0-6.245-5.063-11.307-11.307-11.307
		c-21.545,0-32.904,4.654-42.924,8.76c-9.259,3.794-17.257,7.071-34.348,7.071c-17.091,0-25.089-3.277-34.35-7.071
		c-10.02-4.106-21.378-8.76-42.922-8.76s-32.901,4.654-42.922,8.76c-0.141,0.058-0.28,0.114-0.421,0.172
		c-0.009-1.141-0.029-2.277-0.052-3.413c0.744-31.102,7.196-59.787,18.078-82.385c11.845,13.091,25.571,20.731,40.937,22.741
		c2.696,0.353,5.425,0.528,8.192,0.528c21.454-0.001,45.04-10.587,70.243-31.557c0.118-0.097,0.233-0.197,0.346-0.3
		c17.866-16.13,34.292-45.392,48.785-71.209c2.427-4.323,4.79-8.534,7.084-12.542c0.037-0.064,0.073-0.13,0.11-0.196
		c9.106-16.672,26.553-46.088,27.058-47.255c0.844-1.647,1.262-3.467,1.242-5.291C512.038,113.313,511.352,110.784,509.216,108.333z
		 M318.859,208.943c-32.961,27.865-52.258,81.364-51.614,143.11c0.002,0.268-0.016,0.53-0.032,0.794
		c-3.27,0.358-6.936,0.561-11.162,0.561c-4.331,0-8.074-0.211-11.405-0.588c-0.002-0.076-0.014-0.149-0.014-0.226
		c-0.922-80.791,31.543-137.18,59.626-160.92c14.107-11.926,28.132-19.609,39.629-24.506l-8.997,20.605
		c-3.461,7.925-8.959,15.209-15.872,21.038L318.859,208.943z M160.126,261.027c-17.042,2.231-37.519-6.462-60.859-25.839
		c-15.062-13.699-30.464-41.134-44.057-65.349c-2.437-4.341-4.811-8.572-7.116-12.601c-8.538-15.628-16.077-28.394-21-36.674
		c23.071-11.203,44.874-19.521,64.921-24.76c0.068-0.018,0.135-0.036,0.202-0.055c43.169-12.14,82.193-11.218,97.107,2.29
		c0.111,0.101,0.225,0.2,0.34,0.296c18.941,15.829,26.661,42.827,25.718,70.491c-20.154-15.414-39.611-23.635-52.954-27.878
		c-6.313-2.006-13.075-0.273-17.648,4.526c-4.583,4.81-5.992,11.665-3.676,17.89l0,0l9.75,26.209
		c5.044,13.558,13.691,25.468,25.003,34.44c0.893,0.709,1.79,1.442,2.686,2.199c4.688,3.963,9.053,8.667,13.082,13.99
		C182.25,252.657,171.927,259.483,160.126,261.027z M193.141,208.943c-1.075-0.909-2.151-1.789-3.227-2.644
		c-8.083-6.411-14.26-14.921-17.865-24.612l-5.674-15.253c11.871,4.875,26.566,12.724,41.367,25.237
		c12.139,10.262,25.082,26.652,35.806,48.453c-0.079,0.183-0.164,0.362-0.243,0.545c-4.193,9.722-7.752,19.778-10.714,30.123
		C223.727,244.874,210.287,223.439,193.141,208.943z M298.974,367.263c9.259-3.794,17.256-7.071,34.346-7.071
		c17.09,0,25.089,3.277,34.348,7.071c10.021,4.106,21.379,8.76,42.924,8.76c21.544,0,32.903-4.654,42.922-8.76
		c6.938-2.843,13.168-5.395,23.042-6.496v63.878H35.565v-63.878c9.873,1.101,16.101,3.653,23.038,6.496
		c10.02,4.106,21.377,8.76,42.921,8.76c21.542,0,32.899-4.654,42.919-8.76c9.259-3.794,17.255-7.071,34.344-7.071
		c17.09,0,25.087,3.277,34.347,7.071c10.02,4.106,21.377,8.76,42.921,8.76C277.595,376.023,288.952,371.369,298.974,367.263z
		 M463.905,157.24c-2.304,4.03-4.681,8.262-7.118,12.604c-13.593,24.215-28.994,51.648-44.055,65.345
		c-23.338,19.375-43.796,28.069-60.858,25.839c-11.801-1.543-22.123-8.37-31.496-20.824c4.029-5.321,8.394-10.026,13.082-13.99
		c0.026-0.023,0.083-0.07,0.11-0.093c9.581-8.078,17.204-18.21,22.046-29.3l14.108-32.304c2.709-6.203,1.522-13.451-3.026-18.464
		c-4.543-5.008-11.634-6.894-18.066-4.801c-13.118,4.267-32.228,12.447-52.012,27.573c-0.943-27.664,6.777-54.66,25.719-70.491
		c0.115-0.096,0.228-0.196,0.34-0.296c7.923-7.178,22.649-10.801,41.191-10.801c16.356,0,35.683,2.821,55.916,8.511
		c0.068,0.019,0.135,0.037,0.202,0.055c20.046,5.239,41.849,13.557,64.92,24.76C479.981,128.845,472.443,141.61,463.905,157.24z"/>
</g>
<g>
</g>
<g>
</g>
<g>
</g>
<g>
</g>
<g>
</g>
<g>
</g>
<g>
</g>
<g>
</g>
<g>
</g>
<g>
</g>
<g>
</g>
<g>
</g>
<g>
</g>
<g>
</g>
<g>
</g>
</svg>
