<?xml version="1.0" encoding="utf-8"?>
	<svg version="1.1" id="Layer_1" xmlns="http://www.w3.org/2000/svg" xmlns:xlink="http://www.w3.org/1999/xlink" x="0px" y="0px" width="32px" height="32px" viewBox="0 0 32 32" enable-background="new 0 0 32 32" xml:space="preserve">
		<defs>
            <radialGradient id="grad1" cx="0.7" cy="0.6" r="0.6" fx="0.9" fy="0.9">
                <stop offset="0%" style="stop-color:#56835F;stop-opacity:1" />
                <stop offset="100%" style="stop-color:#A4C484;stop-opacity:1" />
            </radialGradient>
        </defs>
		<switch>
			<g>
					<path fill="url(#grad1)" stroke="black" stroke-width="1" d="M19.106,4.977c0.531-0.415,0.957-0.94,1.273-1.532c0.568-1.065,2.663,0.311,3.138,0.867
						c0.254,0.298,0.535,0.354,0.806,0.799c0.317,0.521,0.001,1.184-0.135,1.778c-0.384,1.683,0.477,3.366,1.197,4.935
						c2.111,4.605,3.162,10.028,1.255,14.721c-0.377,0.928-0.87,1.82-1.552,2.553c-2.406,2.584-6.097,3.42-9.431,2.597
						c-3.79-0.936-7.816-2.373-9.916-5.663C3.559,22.615,4.131,17.95,6.307,14.53c2.976-4.677,7.88-6.4,12.312-9.21
						C18.786,5.214,18.949,5.1,19.106,4.977z"/>
					<path fill="url(#grad1)" stroke="black" stroke-width="1" d="M22.153,2.902c0.329,0.094,0.638,0.255,0.919,0.449c0.437,0.302,0.812,0.683,1.189,1.058
						c0.046,0.046,0.095,0.093,0.158,0.111c0.101,0.028,0.209-0.031,0.273-0.114s0.078-0.194,0.13-0.285
						c0.407-0.707,1.02-1.357,1.902-1.576c0.171-0.043,0.37-0.046,0.486-0.18c0.141-0.163,0.092-0.411,0.024-0.615
						c-0.182-0.543-0.447-1.058-0.783-1.522c-0.06-0.082-0.126-0.167-0.22-0.205c-0.113-0.046-0.241-0.017-0.359,0.014
						c-1.495,0.4-2.909,1.105-4.126,2.061c-0.124,0.097-0.275,0.194-0.378,0.314c-0.043,0.05-0.09,0.128-0.1,0.193
						c-0.017,0.114,0.021,0.11,0.114,0.144C21.636,2.841,21.898,2.829,22.153,2.902z"/>
			</g>
		</switch>
	</svg>
