<?xml version="1.0" encoding="utf-8"?>
	<svg version="1.1" id="Layer_1" xmlns="http://www.w3.org/2000/svg" xmlns:xlink="http://www.w3.org/1999/xlink" x="0px" y="0px" width="32px" height="32px" viewBox="0 0 32 32" enable-background="new 0 0 32 32" xml:space="preserve">
		<defs>
            <radialGradient id="grad1" cx="0.5" cy="0.5" r="0.4" fx="0.5" fy="0.1">
                <stop offset="0%" style="stop-color:#DF9357;stop-opacity:1" />
                <stop offset="100%" style="stop-color:#721001;stop-opacity:1" />
            </radialGradient>
            <radialGradient id="grad2" cx="0.7" cy="0.4" r="0.4" fx="0.8" fy="0.3">
                <stop offset="0%" style="stop-color:#EABC90;stop-opacity:1" />
                <stop offset="100%" style="stop-color:#EABC90;stop-opacity:1" />
            </radialGradient>
	    </defs>
		<switch>
			<g>
				<path fill="url(#grad1)" stroke="black" stroke-width="1" d="M14.7,4.966c-1.599-1.081-3.472-2.065-4.878-3.386C8.62,0.451,7.673,0.828,6.391,1.7C5.685,2.18,5.069,2.782,4.465,3.381
					c-0.78,0.773-1.568,1.554-2.157,2.482c-1.281,2.014-1.808,4.443-2.125,6.78c-0.328,2.419-0.287,4.924,0.73,7.187
					c0.625,1.391,1.573,2.605,2.415,3.875c1.066,1.611,1.971,3.331,2.656,5.138c0.188,0.497,0.346,0.981,0.488,1.496
					c0.029,0.103,0.057,0.207,0.1,0.305c0.199,0.456,0.725,0.743,1.215,0.664c1.224-0.199,2.415-0.736,3.666-0.909
					c1.038-0.144,2.085,0.096,3.128,0.184c2.7,0.229,5.913-0.465,8.292-1.764c2.379-1.3,3.96-3.187,5.942-5.038
					c3.745-3.496,4.098-9.756,1.525-14.087c-0.29-0.488-0.623-0.957-1.054-1.326c-0.971-0.833-2.326-1.067-3.604-1.036
					s-2.544,0.29-3.823,0.302c-1.381,0.013-2.764-0.268-4.03-0.819C16.718,6.33,15.705,5.646,14.7,4.966z"/>
				<path fill="url(#grad2)" stroke="black" stroke-width="1" d="M25.506,6.658c0.588-0.029,1.253,0.094,1.734,0.422c-0.597-0.477-1.332-0.553-1.878-0.871
					c-0.97-0.565-1.859-1.415-2.754-2.096c-0.159-0.121-0.318-0.242-0.477-0.363c-0.641-0.488-1.291-0.98-2.032-1.293
					c-0.997-0.421-2.101-0.493-3.181-0.56c-2.022-0.125-4.424-0.451-6.429-0.741c0.492,0.274,1.134,0.81,1.503,1.017
					c2.057,1.159,3.656,2.519,5.775,3.502c0.822,0.381,1.604,0.724,2.483,0.919c0.613,0.136,1.245,0.115,1.869,0.113
					c0.65-0.002,1.336-0.082,1.983-0.089C24.588,6.613,25.02,6.682,25.506,6.658z"/>
			</g>
		</switch>
	</svg>
